P1
80 80
11111111110000000000111111111100000000001111111111000000000011111111110000000000
00000000001111111111000000000011111111110000000000111111111100000000001111111111
00000000001111111111000000000011111111110000000000111111111100000000001111111111
00000000001111111111000000000011111111110000000000111111111100000000001111111111
00000000001111111111000000000011111111110000000000111111111100000000001111111111
00000000001111111111000000000011111111110000000000111111111100000000001111111111
00000000001111111111000000000011111111110000000000111111111100000000001111111111
00000000001111111111000000000011111111110000000000111111111100000000001111111111
00000000001111111111000000000011111111110000000000111111111100000000001111111111
00000000001111111111000000000011111111110000000000111111111100000000001111111111
00000000001111111111000000000011111111110000000000111111111100000000001111111111
11111111110000000000111111111100000000001111111111000000000011111111110000000000
11111111110000000000111111111100000000001111111111000000000011111111110000000000
11111111110000000000111111111100000000001111111111000000000011111111110000000000
11111111110000000000111111111100000000001111111111000000000011111111110000000000
11111111110000000000111111111100000000001111111111000000000011111111110000000000
11111111110000000000111111111100000000001111111111000000000011111111110000000000
11111111110000000000111111111100000000001111111111000000000011111111110000000000
11111111110000000000111111111100000000001111111111000000000011111111110000000000
11111111110000000000111111111100000000001111111111000000000011111111110000000000
11111111110000000000111111111100000000001111111111000000000011111111110000000000
00000000001111111111000000000011111111110000000000111111111100000000001111111111
00000000001111111111000000000011111111110000000000111111111100000000001111111111
00000000001111111111000000000011111111110000000000111111111100000000001111111111
00000000001111111111000000000011111111110000000000111111111100000000001111111111
00000000001111111111000000000011111111110000000000111111111100000000001111111111
00000000001111111111000000000011111111110000000000111111111100000000001111111111
00000000001111111111000000000011111111110000000000111111111100000000001111111111
00000000001111111111000000000011111111110000000000111111111100000000001111111111
00000000001111111111000000000011111111110000000000111111111100000000001111111111
00000000001111111111000000000011111111110000000000111111111100000000001111111111
11111111110000000000111111111100000000001111111111000000000011111111110000000000
11111111110000000000111111111100000000001111111111000000000011111111110000000000
11111111110000000000111111111100000000001111111111000000000011111111110000000000
11111111110000000000111111111100000000001111111111000000000011111111110000000000
11111111110000000000111111111100000000001111111111000000000011111111110000000000
11111111110000000000111111111100000000001111111111000000000011111111110000000000
11111111110000000000111111111100000000001111111111000000000011111111110000000000
11111111110000000000111111111100000000001111111111000000000011111111110000000000
11111111110000000000111111111100000000001111111111000000000011111111110000000000
11111111110000000000111111111100000000001111111111000000000011111111110000000000
00000000001111111111000000000011111111110000000000111111111100000000001111111111
00000000001111111111000000000011111111110000000000111111111100000000001111111111
00000000001111111111000000000011111111110000000000111111111100000000001111111111
00000000001111111111000000000011111111110000000000111111111100000000001111111111
00000000001111111111000000000011111111110000000000111111111100000000001111111111
00000000001111111111000000000011111111110000000000111111111100000000001111111111
00000000001111111111000000000011111111110000000000111111111100000000001111111111
00000000001111111111000000000011111111110000000000111111111100000000001111111111
00000000001111111111000000000011111111110000000000111111111100000000001111111111
00000000001111111111000000000011111111110000000000111111111100000000001111111111
11111111110000000000111111111100000000001111111111000000000011111111110000000000
11111111110000000000111111111100000000001111111111000000000011111111110000000000
11111111110000000000111111111100000000001111111111000000000011111111110000000000
11111111110000000000111111111100000000001111111111000000000011111111110000000000
11111111110000000000111111111100000000001111111111000000000011111111110000000000
11111111110000000000111111111100000000001111111111000000000011111111110000000000
11111111110000000000111111111100000000001111111111000000000011111111110000000000
11111111110000000000111111111100000000001111111111000000000011111111110000000000
11111111110000000000111111111100000000001111111111000000000011111111110000000000
11111111110000000000111111111100000000001111111111000000000011111111110000000000
00000000001111111111000000000011111111110000000000111111111100000000001111111111
00000000001111111111000000000011111111110000000000111111111100000000001111111111
00000000001111111111000000000011111111110000000000111111111100000000001111111111
00000000001111111111000000000011111111110000000000111111111100000000001111111111
00000000001111111111000000000011111111110000000000111111111100000000001111111111
00000000001111111111000000000011111111110000000000111111111100000000001111111111
00000000001111111111000000000011111111110000000000111111111100000000001111111111
00000000001111111111000000000011111111110000000000111111111100000000001111111111
00000000001111111111000000000011111111110000000000111111111100000000001111111111
00000000001111111111000000000011111111110000000000111111111100000000001111111111
11111111110000000000111111111100000000001111111111000000000011111111110000000000
11111111110000000000111111111100000000001111111111000000000011111111110000000000
11111111110000000000111111111100000000001111111111000000000011111111110000000000
11111111110000000000111111111100000000001111111111000000000011111111110000000000
11111111110000000000111111111100000000001111111111000000000011111111110000000000
11111111110000000000111111111100000000001111111111000000000011111111110000000000
11111111110000000000111111111100000000001111111111000000000011111111110000000000
11111111110000000000111111111100000000001111111111000000000011111111110000000000
11111111110000000000111111111100000000001111111111000000000011111111110000000000
