P1
100 100
0000000000000000000000000000000000000000000000000000000000000000000000000000000000000000000000000000
0000000000000000000000000000000000000000000000000000000000000000000000000000000000000000000000000000
0000000000000000000000000000000000000000000000000000000000000000000000000000000000000000000000000000
0000000000000000000000000000000000000000000000000000000000000000000000000000000000000000000000000000
0000000000000000000000000000000000000000000000000000000000000000000000000000000000000000000000000000
0000000000000000000000000000000000000000000000000000000000000000000000000000000000000000000000000000
0000000000000000000000000000000000000000000000000000000000000000000000000000000000000000000000000000
0000000000000000000000000000000000000000000000000000000000000000000000000000000000000000000000000000
0000000000000000000000000000000000000000000000000000000000000000000000000000000000000000000000000000
0000000000000000000000000000000000000000000000000000000000000000000000000000000000000000000000000000
0000000000000000000000000000000000000000000000000000000000000000000000000000000000000000000000000000
0000000000000000000000000000000000000000000000000000000000000000000000000000000000000000000000000000
0000000000000000000000000000000000000000000000000000000000000000000000000000000000000000000000000000
0000000000000000000000000000000111111111000000000011000000000000000011100000000000000000000000000000
0000000000000000000000000000001111111111110000000111100000000000000011100000000000000000000000000000
0000000000000000000000000000001111111111111000000111100000000000000111100000000000000000000000000000
0000000000000000000000000000001111000011111100000111100000000000000111100000000000000000000000000000
0000000000000000000000000000001111000000111110000111100000000000000111100000000000000000000000000000
0000000000000000000000000000001111000000011110000111100000000000000111100000000000000000000000000000
0000000000000000000000000000001111000000001110000111100000000000000111100000000000000000000000000000
0000000000000000000000000000001111000000001110000111100000000000000111100000000000000000000000000000
0000000000000000000000000000001111000000001110000111100000000000000111100000000000000000000000000000
0000000000000000000000000000001111000000011110000111100000000000000111100000000000000000000000000000
0000000000000000000000000000001111000000011110000111100000000000000111100000000000000000000000000000
0000000000000000000000000000001111000000111100000111100000000000000111100000000000000000000000000000
0000000000000000000000000000001111000111111100000111100000001111111111100000000000000000000000000000
0000000000000000000000000000001111111111111000000111100111111111111111000000000000000000000000000000
0000000000000000000000000000001111111111100000000111111111111111111111000000000000000000000000000000
0000000000000000000000000000001111111110000000000111111111111110000111000000000000000000000000000000
0000000000000000000000000000001110000000000000000111111110000000000111000000000000000000000000000000
0000000000000000000000000000011110000000000000000111100000000000000111000000000000000000000000000000
0000000000000000000000000000011110000000000000000111100000000000000111000000000000000000000000000000
0000000000000000000000000000011110000000000000000111100000000000000111000000000000000000000000000000
0000000000000000000000000000011110000000000000000111000000000000000111000000000000000000000000000000
0000000000000000000000000000011110000000000000000111000000000000000111100000000000000000000000000000
0000000000000000000000000000011110000000000000001111000000000000000111100000000000000000000000000000
0000000000000000000000000000011110000000000000001111000000000000000111100000000000000000000000000000
0000000000000000000000000000011110000000000000001111000000000000000111100000000000000000000000000000
0000000000000000000000000000001110000000000000000111000000000000000111000000000000000000000000000000
0000000000000000000000000000000000000000000000000000000000000000000000000000000000000000000000000000
0000000000000000000000000000000000000000000000000000000000000000000000000000000000000000000000000000
0000000000000000000000000000000000000000000000000000000000000000000000000000000000000000000000000000
0000000000000000000000000000000000000000000000000000000000000000000000000000000000000000000000000000
0000000000000000000000000000000000000000000000000000000000000000000000000000000000000000000000000000
0000000000000000000000000000000000000000000000000000000000000000000000000000000000000000000000000000
0000000000000000000000000000000000000000000000000000000000000000000000000000000000000000000000000000
0000000000000000000000000000000000000000000000000000000000000000000000000000000000000000000000000000
0000000000000000000000000000000000000000000000000000000000000000000000000000000000000000000000000000
0000000000000000000000000000000000000000000000000000000000000000000000000000000000000000000000000000
0000000000000000000000000000000000000000000000000000000000000000000000000000000000000000000000000000
0000000000000000000000000000000000000000000000000000000000000000000000000000000000000000000000000000
0000000000000000000000000000000000000000000000000000000000000000000000000000000000000000000000000000
0000000000000000000000000000000000000000000000000000000000000000000000000000000000000000000000000000
0000000000000000000000000000000000000000000000000000000000000000000000000000000000000000000000000000
0000000000000000000000000000000000000000000000000000000000000000000000000000000000000000000000000000
0000000000000000000000000000000000000000000000000000000000000000000000000000000000000000000000000000
0000000000000000000000000000000000000000000000000000000000000000000000000000000000000000000000000000
0000000000000000000000000000000000000000000000000000000000000000000000000000000000000000000000000000
0000000000000000000000000000000000000000000000000000000000000000000000000000000000000000000000000000
0000000000000000000000000000000000000000000000000000000000000000000000000000000000000000000000000000
0000000000000000000000000000000000000000000000000000000000000000000000000000000000000000000000000000
0000000000000000000000000000000000000000000000000000000000000000000000000000000000000000000000000000
0000000000000000000000000000000000000000000000000000000000000000000000000000000000000000000000000000
0000000000000000000000000000000000111111111111111000001100000000000000000000000000000000000000000000
0000000000000000000000000000000001111111111111111100011110000000000000000000000000000000000000000000
0000000000000000000000000000000000111111111111111100011110000000000000000000000000000000000000000000
0000000000000000000000000000000000000001111000111000011110000000000000000000000000000000000000000000
0000000000000000000000000000000000000001111000000000011110000000000000000000000000000000000000000000
0000000000000000000000000000000000000001111000000000011110000000000000000000000000000000000000000000
0000000000000000000000000000000000000001111000000000011110000000000000000000000000000000000000000000
0000000000000000000000000000000000000001111000000000011110000000000000000000000000000000000000000000
0000000000000000000000000000000000000001111000000000011110000000000000000000000000000000000000000000
0000000000000000000000000000000000000001111000000000011110000000000000000000000000000000000000000000
0000000000000000000000000000000000000001111000000000011110000000000000000000000000000000000000000000
0000000000000000000000000000000000000001111000000000011110000000000000000000000000000000000000000000
0000000000000000000000000000000000000001111000000000011110000000000000000000000000000000000000000000
0000000000000000000000000000000000000001111000000000011110000000000000000000000000000000000000000000
0000000000000000000000000000000000000001111000000000011110000000000000000000000000000000000000000000
0000000000000000000000000000000000000001111000000000011110000000000000000000000000000000000000000000
0000000000000000000000000000000000000001111000000000011110000000000000000000000000000000000000000000
0000000000000000000000000000000000000001111000000000011110000000000000000000000000000000000000000000
0000000000000000000000000000000000000001111000000000011110000000000000000000000000000000000000000000
0000000000000000000000000000000000000001111000000000011110000000000000000000000000000000000000000000
0000000000000000000000000000000000000001111000000000011110000000000000000000000000000000000000000000
0000000000000000000000000000000000000001111000000000011100000000000000000000000000000000000000000000
0000000000000000000000000000000000000001111000000000011100000000000000000000000000000000000000000000
0000000000000000000000000000000000111111111111111000011100000000011110000000000000000000000000000000
0000000000000000000000000000000000111111111111111100011100000111111111000000000000000000000000000000
0000000000000000000000000000000000111111111111111000011111111111111110000000000000000000000000000000
0000000000000000000000000000000000000000000000000000011111111111111000000000000000000000000000000000
0000000000000000000000000000000000000000000000000000001111111100000000000000000000000000000000000000
0000000000000000000000000000000000000000000000000000000000000000000000000000000000000000000000000000
0000000000000000000000000000000000000000000000000000000000000000000000000000000000000000000000000000
0000000000000000000000000000000000000000000000000000000000000000000000000000000000000000000000000000
0000000000000000000000000000000000000000000000000000000000000000000000000000000000000000000000000000
0000000000000000000000000000000000000000000000000000000000000000000000000000000000000000000000000000
0000000000000000000000000000000000000000000000000000000000000000000000000000000000000000000000000000
0000000000000000000000000000000000000000000000000000000000000000000000000000000000000000000000000000
0000000000000000000000000000000000000000000000000000000000000000000000000000000000000000000000000000
0000000000000000000000000000000000000000000000000000000000000000000000000000000000000000000000000000
